<?xml version="1.0" standalone="no"?><!DOCTYPE svg PUBLIC "-//W3C//DTD SVG 1.1//EN" "http://www.w3.org/Graphics/SVG/1.1/DTD/svg11.dtd"><svg class="icon" width="200px" height="200.00px" viewBox="0 0 1024 1024" version="1.1" xmlns="http://www.w3.org/2000/svg"><path d="M869.84231 521.670031v-0.204657c0.102328-0.409313 0.102328-0.716299 0.102329-1.125612 0-0.306985 0-0.61397 0.102328-0.920955v-0.511642-1.432597-1.432597-0.511642c0-0.306985 0-0.61397-0.102328-0.920956 0-0.409313-0.102328-0.716299-0.102329-1.125612v-0.204656c-0.61397-4.093135-2.148896-7.981613-4.40012-11.256121-0.204657-0.409313-0.511642-0.716299-0.716298-1.125612-0.818627-1.125612-1.739582-2.251224-2.762866-3.17218L672.553213 308.110722c-10.846807-10.846807-28.447287-10.846807-39.294094 0-10.846807 10.846807-10.846807 28.549615 0 39.396423l142.031777 142.236434H372.935745c-15.349256 0-27.833317 12.484061-27.833317 27.833317s12.484061 27.833317 27.833317 27.833317h402.45748L633.259119 687.646647c-10.846807 10.846807-10.846807 28.549615 0 39.396423 5.423404 5.423404 12.58639 8.18627 19.647047 8.186269s14.223643-2.762866 19.647047-8.186269l189.307485-189.61447c4.195463-4.195463 7.060658-9.721195 7.981612-15.758569z" fill="#8a8a8a" /><path d="M808.445288 697.572499c-15.349256 0-27.833317 12.484061-27.833316 27.833317v39.908064c0 18.112122-14.632957 32.745078-32.64275 32.745079H242.262416c-18.009793 0-32.64275-14.735285-32.64275-32.745079V258.68612c0-18.009793 14.632957-32.745078 32.64275-32.745079H748.07155c18.009793 0 32.64275 14.735285 32.64275 32.745079v49.629259c0 15.349256 12.484061 27.833317 27.833317 27.833317s27.833317-12.484061 27.833316-27.833317v-49.629259c0-48.810633-39.601079-88.411712-88.309383-88.411712H242.262416c-48.708304 0-88.309383 39.703408-88.309383 88.411712v506.62776c0 48.810633 39.601079 88.411712 88.309383 88.411712H748.07155c48.708304 0 88.309383-39.703408 88.309383-88.411712v-39.908064c-0.204657-15.349256-12.58639-27.833317-27.935645-27.833317z" fill="#8a8a8a" /></svg>