<?xml version="1.0" standalone="no"?><!DOCTYPE svg PUBLIC "-//W3C//DTD SVG 1.1//EN" "http://www.w3.org/Graphics/SVG/1.1/DTD/svg11.dtd"><svg class="icon" width="200px" height="200.00px" viewBox="0 0 1024 1024" version="1.1" xmlns="http://www.w3.org/2000/svg"><path d="M819.949531 168.534316a69.219032 69.219032 0 0 0-88.72562 106.340266 344.464173 344.464173 0 1 1-445.585285 0 69.153792 69.153792 0 0 0-88.073227-106.340266 484.076547 484.076547 0 1 0 794.616219 370.559944 493.210066 493.210066 0 0 0-172.232087-370.559944z" fill="#ffffff" /><path d="M508.757465 681.968605a69.806187 69.806187 0 0 0 65.239427-69.806187V76.546724a69.806187 69.806187 0 1 0-138.959979 0v535.615694a69.806187 69.806187 0 0 0 73.720552 69.806187z" fill="#ffffff" /></svg>